# xmcd
#
# Track frame offsets: 
#        150
#        13937
#        24587
#        38247
#        52792
#        64512
#        75422
#        87285
#        116392
#        131612
#        160152
#        188260
#        212640
#        229787
#        240417
#        256620
#        274700
#        288235
#        301660
#        316692
#
# Disc length: 4537 seconds
#
# Revision: 4
# Processed by: cddbd v1.5.2PL0 Copyright (c) Steve Scherf et al.
# Submitted via: ExactAudioCopyFreeDBPlugin 1.0
#
DISCID=ea11b714
DTITLE=Various Artist - Martin Scorsese Presents The Blues:  Piano Bl
DTITLE=ues (A Film By Clint Eastwood)
DYEAR=2003
DGENRE=Blues
TTITLE0=Jimmy Yancey - How Long Blues
TTITLE1=The Boogie Woogie Boys - Boogie Woogie Prayer, Part 1
TTITLE2=Count Basie and His Orchestra - How Long Blues
TTITLE3=Johnny Moore's Three Blazers - Driftin' Blues
TTITLE4=Fats Domino - The Fat Man
TTITLE5=Art Tatum - Tatum Pole Boogie
TTITLE6=Professor Longhair - Tipitina
TTITLE7=Ray Charles - What'd I Say, Parts 1 and 2
TTITLE8=Otis Spann - Good Morning Mr. Blues
TTITLE9=Duke Ellington,Charles Mingus and Max Roach - Backward Country B
TTITLE9=oy Blues
TTITLE10=Thelonious Monk - Blue Monk
TTITLE11=Big Joe Turner and Jay McShann - Piney Brown Blues
TTITLE12=Jay McShann and Dave Brubeck - Mission Ranch Blues
TTITLE13=Joe Turner - The Ladder
TTITLE14=Dr. John - Honey Dripper
TTITLE15=Henry Townsend - World Full Of People
TTITLE16=Dr. John - Big Chief
TTITLE17=Joe Willie "Pinetop" Perkins and Marcia Ball - Carmel Blues
TTITLE18=Dave Brubeck - Travelin' Blues
TTITLE19=Dr. John, Pete Jolly,& Henry Gray - How Long Blues
EXTD=Martin Scorsese Presents The Blues\nPiano Blues\nA Film By Clint 
EXTD=Eastwood
EXTT0=Jimmy Yancey
EXTT1=The Boogie Woogie Boys
EXTT2=Count Basie and His Orchestra
EXTT3=Johnny Moore's Three Blazers
EXTT4=Fats Domino
EXTT5=Art Tatum
EXTT6=Professor Longhair
EXTT7=Ray Charles
EXTT8=Otis Spann
EXTT9=Duke Ellington,Charles Mingus and Max Roach
EXTT10=Thelonious Monk
EXTT11=Big Joe Turner and Jay McShann
EXTT12=Jay McShann and Dave Brubeck
EXTT13=Joe Turner
EXTT14=Dr. John
EXTT15=Henry Townsend
EXTT16=Dr. John
EXTT17=Joe Willie "Pinetop" Perkins and Marcia Ball
EXTT18=Dave Brubeck
EXTT19=Dr. John, Pete Jolly,& Henry Gray
PLAYORDER=
